<svg width="189" height="189" viewBox="0 0 189 189" fill="none" xmlns="http://www.w3.org/2000/svg">
<rect width="189" height="189" rx="25" fill="#00425A"/>
<path d="M83.06 130.84C83.06 136.347 77.6933 139.1 66.96 139.1C64.6267 139.1 63.2267 137.933 62.76 135.6C62.3867 133.173 62.2 129.813 62.2 125.52C62.2 116.467 64.02 105.267 67.66 91.92C73.7267 69.8933 80.2133 56.92 87.12 53C88.0533 52.44 89.08 52.16 90.2 52.16C91.32 52.16 91.88 53.98 91.88 57.62C91.88 61.26 91.6933 64.48 91.32 67.28C90.5733 72.88 89.22 80.1133 87.26 88.98C85.3933 97.8467 84.46 103.073 84.46 104.66L83.06 130.84ZM92.58 93.18C92.58 91.9667 93.2333 91.1733 94.54 90.8C95.94 90.4267 97.6667 90.1 99.72 89.82C101.773 89.4467 104.013 88.9333 106.44 88.28C108.867 87.6267 111.107 86.4133 113.16 84.64C117.92 80.5333 120.3 73.6733 120.3 64.06C120.3 57.9 118.2 53.1867 114 49.92C109.893 46.6533 103.92 45.02 96.08 45.02C88.3333 45.02 81.0533 46.6533 74.24 49.92C71.72 51.1333 69.4333 52.2533 67.38 53.28C65.42 54.3067 63.6 54.82 61.92 54.82C60.24 54.82 59.4 54.3067 59.4 53.28C59.4 51.6933 60.94 49.08 64.02 45.44C67.1 42.08 71.9533 38.9533 78.58 36.06C85.3 33.1667 92.3467 31.72 99.72 31.72C113.627 31.6267 124.453 34.8933 132.2 41.52C138.92 47.3067 142.28 54.82 142.28 64.06C142.28 73.2067 138.967 81.42 132.34 88.7C125.713 95.8867 117.407 99.48 107.42 99.48C97.5267 99.48 92.58 97.38 92.58 93.18Z" fill="white"/>
<line x1="25" y1="154" x2="163" y2="154" stroke="white" stroke-width="6"/>
</svg>
